<svg width="145" height="33" viewBox="0 0 145 33" fill="none" xmlns="http://www.w3.org/2000/svg">
<rect y="3" width="145" height="30" fill="white"/>
<g filter="url(#filter0_b_2_23)">
<mask id="path-2-outside-1_2_23" maskUnits="userSpaceOnUse" x="22" y="6" width="102" height="27" fill="black">
<rect fill="white" x="22" y="6" width="102" height="27"/>
<path d="M37.5786 12.736C37.5786 13.872 37.2186 14.856 36.4986 15.688C35.7946 16.504 34.8586 17.128 33.6906 17.56C32.5226 17.992 31.2586 18.208 29.8986 18.208C28.9866 18.208 28.1386 18.104 27.3546 17.896L35.0106 22.936C35.2506 23.096 35.3706 23.288 35.3706 23.512C35.3706 23.8 35.2666 24.072 35.0586 24.328C34.8666 24.568 34.6106 24.688 34.2906 24.688C34.1626 24.688 34.0266 24.664 33.8826 24.616C33.7386 24.552 33.6266 24.488 33.5466 24.424L26.4426 19.36L26.2266 20.512L25.5786 24.28C25.5306 24.552 25.4106 24.76 25.2186 24.904C25.0426 25.048 24.8186 25.12 24.5466 25.12C24.2746 25.12 24.0666 25.048 23.9226 24.904C23.7946 24.744 23.7306 24.56 23.7306 24.352C23.7306 24.256 23.7386 24.184 23.7546 24.136C24.0426 22.712 24.2826 21.424 24.4746 20.272C24.6826 19.104 24.9226 17.68 25.1946 16C25.4986 14.112 25.7306 12.616 25.8906 11.512C25.7946 11.544 25.7226 11.56 25.6746 11.56C25.4666 11.56 25.3386 11.488 25.2906 11.344C25.2426 11.2 25.2186 10.992 25.2186 10.72C25.2186 10.496 25.2746 10.32 25.3866 10.192C25.4986 10.048 25.6986 9.904 25.9866 9.76L26.1546 9.688L26.2266 9.184C26.2746 8.816 26.3866 8.552 26.5626 8.392C26.7386 8.232 26.9866 8.152 27.3066 8.152C27.8986 8.152 28.1626 8.376 28.0986 8.824V8.872C28.7546 8.616 29.3546 8.44 29.8986 8.344C30.4426 8.248 31.0106 8.2 31.6026 8.2C32.8026 8.2 33.8506 8.392 34.7466 8.776C35.6586 9.144 36.3546 9.672 36.8346 10.36C37.3306 11.032 37.5786 11.824 37.5786 12.736ZM31.6026 9.904C31.0266 9.904 30.4426 9.976 29.8506 10.12C29.2586 10.248 28.5866 10.456 27.8346 10.744C27.5466 12.92 27.2746 14.744 27.0186 16.216C27.8346 16.456 28.8266 16.576 29.9946 16.576C31.5786 16.576 32.8906 16.248 33.9306 15.592C34.9866 14.92 35.5146 13.968 35.5146 12.736C35.5146 11.872 35.1626 11.184 34.4586 10.672C33.7546 10.16 32.8026 9.904 31.6026 9.904ZM45.5136 25C43.8656 25 42.4976 24.592 41.4096 23.776C40.3376 22.944 39.8016 21.64 39.8016 19.864C39.8016 18.568 40.0976 17.368 40.6896 16.264C41.2976 15.144 42.1456 14.256 43.2336 13.6C44.3216 12.928 45.5536 12.592 46.9296 12.592C48.0176 12.592 48.9856 12.808 49.8336 13.24C50.6976 13.672 51.3696 14.312 51.8496 15.16C52.3456 15.992 52.5936 17.008 52.5936 18.208C52.5936 19.52 52.2976 20.688 51.7056 21.712C51.1296 22.736 50.3056 23.544 49.2336 24.136C48.1616 24.712 46.9216 25 45.5136 25ZM45.5136 23.512C46.5856 23.512 47.5136 23.288 48.2976 22.84C49.0816 22.376 49.6816 21.744 50.0976 20.944C50.5136 20.128 50.7216 19.216 50.7216 18.208C50.7216 16.944 50.3696 15.952 49.6656 15.232C48.9776 14.496 48.0656 14.128 46.9296 14.128C45.9056 14.128 44.9936 14.392 44.1936 14.92C43.4096 15.432 42.7936 16.128 42.3456 17.008C41.9136 17.888 41.6976 18.84 41.6976 19.864C41.6976 21.16 42.0656 22.096 42.8016 22.672C43.5376 23.232 44.4416 23.512 45.5136 23.512ZM67.7562 13.864C67.7562 13.96 67.7242 14.112 67.6602 14.32C67.6122 14.512 67.5722 14.648 67.5402 14.728C67.4442 14.952 67.3162 15.36 67.1562 15.952C66.8842 16.96 66.6042 18.192 66.3162 19.648C66.0442 21.088 65.9082 22.072 65.9082 22.6C65.9082 22.872 65.9562 23.08 66.0522 23.224C66.1482 23.352 66.3242 23.424 66.5802 23.44C66.7722 23.472 66.9162 23.528 67.0122 23.608C67.1082 23.672 67.1562 23.784 67.1562 23.944C67.1562 24.232 67.0762 24.472 66.9162 24.664C66.7722 24.856 66.5722 24.952 66.3162 24.952C65.6762 24.952 65.2202 24.856 64.9482 24.664C64.6762 24.456 64.4762 24.08 64.3482 23.536C63.4682 24.656 62.1642 25.216 60.4362 25.216C59.3642 25.216 58.4682 24.992 57.7482 24.544C57.0442 24.08 56.5242 23.488 56.1882 22.768C55.8682 22.032 55.7082 21.264 55.7082 20.464C55.7082 19.136 55.9802 17.92 56.5242 16.816C57.0842 15.696 57.8602 14.808 58.8522 14.152C59.8602 13.496 61.0042 13.168 62.2842 13.168C63.0842 13.168 63.7802 13.336 64.3722 13.672C64.9802 14.008 65.4042 14.448 65.6442 14.992L65.8842 14.2C65.9642 13.928 66.0762 13.712 66.2202 13.552C66.3642 13.392 66.5802 13.312 66.8682 13.312C67.1402 13.312 67.3562 13.368 67.5162 13.48C67.6762 13.576 67.7562 13.704 67.7562 13.864ZM64.2762 20.848C64.6762 18.816 64.8762 17.6 64.8762 17.2C64.8762 16.32 64.6042 15.68 64.0602 15.28C63.5162 14.88 62.9242 14.68 62.2842 14.68C61.4042 14.68 60.6042 14.96 59.8842 15.52C59.1802 16.08 58.6202 16.808 58.2042 17.704C57.8042 18.6 57.6042 19.52 57.6042 20.464C57.6042 21.376 57.8202 22.144 58.2522 22.768C58.7002 23.376 59.4442 23.68 60.4842 23.68C61.4282 23.68 62.2522 23.44 62.9562 22.96C63.6602 22.464 64.1002 21.76 64.2762 20.848ZM85.0373 12.736C86.1093 12.736 86.9253 13.048 87.4853 13.672C88.0453 14.296 88.3253 15.128 88.3253 16.168C88.3253 17.096 87.8933 19.784 87.0293 24.232C86.9973 24.44 86.8933 24.624 86.7173 24.784C86.5413 24.928 86.3093 25 86.0213 25C85.7333 25 85.5253 24.92 85.3973 24.76C85.2693 24.584 85.2293 24.392 85.2773 24.184L85.3973 23.584C85.8293 21.216 86.1253 19.528 86.2853 18.52C86.4613 17.512 86.5493 16.728 86.5493 16.168C86.5493 14.84 86.0293 14.176 84.9893 14.176C84.0933 14.176 83.3733 14.616 82.8293 15.496C82.2853 16.36 81.8933 17.424 81.6533 18.688C81.2693 20.672 80.9493 22.504 80.6933 24.184C80.6293 24.696 80.2933 24.952 79.6853 24.952C79.3493 24.952 79.1173 24.872 78.9893 24.712C78.8613 24.552 78.8213 24.36 78.8693 24.136L79.5173 20.584L79.8293 18.808C79.9253 18.248 79.9733 17.72 79.9733 17.224C79.9733 16.344 79.8213 15.632 79.5173 15.088C79.2133 14.544 78.7573 14.272 78.1493 14.272C77.5893 14.272 77.0373 14.576 76.4933 15.184C75.9653 15.776 75.4853 16.696 75.0533 17.944C74.8293 18.568 74.6613 19.12 74.5493 19.6C74.4373 20.064 74.3333 20.584 74.2373 21.16C74.2213 21.272 74.1813 21.496 74.1173 21.832C73.9573 22.664 73.8213 23.472 73.7093 24.256C73.6773 24.464 73.5653 24.632 73.3733 24.76C73.1973 24.888 72.9733 24.952 72.7013 24.952C72.4293 24.952 72.2293 24.888 72.1013 24.76C71.9893 24.616 71.9493 24.44 71.9813 24.232L72.6533 20.32C73.2133 17.024 73.4933 15.264 73.4933 15.04C73.4933 14.72 73.3973 14.448 73.2053 14.224C73.1893 14.192 73.1493 14.152 73.0853 14.104C73.0373 14.04 73.0133 13.968 73.0133 13.888C73.0133 13.664 73.1093 13.464 73.3013 13.288C73.5093 13.112 73.7093 13.024 73.9013 13.024C74.1413 13.024 74.3493 13.136 74.5253 13.36C74.7013 13.584 74.8293 13.824 74.9093 14.08C74.9733 14.304 75.0053 14.544 75.0053 14.8C75.0053 14.944 74.9973 15.056 74.9813 15.136L74.9573 15.304C75.7573 13.64 76.8853 12.808 78.3413 12.808C79.1573 12.808 79.8053 13.064 80.2853 13.576C80.7653 14.088 81.0773 14.76 81.2213 15.592C81.9733 13.688 83.2453 12.736 85.0373 12.736ZM96.3623 11.416C95.9943 11.416 95.6903 11.312 95.4503 11.104C95.2263 10.88 95.1143 10.584 95.1143 10.216C95.1143 9.736 95.2903 9.32 95.6423 8.968C96.0103 8.616 96.4423 8.44 96.9383 8.44C97.3223 8.44 97.6263 8.552 97.8503 8.776C98.0743 8.984 98.1863 9.272 98.1863 9.64C98.1863 10.12 98.0023 10.536 97.6343 10.888C97.2663 11.24 96.8423 11.416 96.3623 11.416ZM93.6263 24.856C93.3383 24.856 93.1223 24.784 92.9783 24.64C92.8343 24.496 92.7863 24.304 92.8343 24.064L94.8743 13.864C94.9223 13.592 95.0423 13.384 95.2343 13.24C95.4263 13.096 95.6663 13.024 95.9543 13.024C96.2423 13.024 96.4583 13.096 96.6023 13.24C96.7463 13.384 96.7943 13.6 96.7463 13.888L94.7063 24.064C94.6423 24.32 94.5143 24.52 94.3223 24.664C94.1303 24.792 93.8983 24.856 93.6263 24.856ZM107.658 7.24C108.586 7.24 109.322 7.496 109.866 8.008C110.426 8.504 110.706 9.176 110.706 10.024C110.706 10.248 110.682 10.48 110.634 10.72C110.57 11.152 110.45 11.456 110.274 11.632C110.098 11.808 109.842 11.896 109.506 11.896C109.202 11.896 108.986 11.816 108.858 11.656C108.73 11.496 108.69 11.304 108.738 11.08C108.818 10.6 108.858 10.224 108.858 9.952C108.858 9.552 108.77 9.264 108.594 9.088C108.418 8.896 108.106 8.8 107.658 8.8C106.954 8.8 106.418 9.088 106.05 9.664C105.682 10.24 105.402 11.112 105.21 12.28L104.97 13.792C104.906 14.08 104.85 14.352 104.802 14.608C104.77 14.848 104.738 15.072 104.706 15.28H106.602C106.81 15.28 106.962 15.336 107.058 15.448C107.17 15.56 107.226 15.704 107.226 15.88C107.226 16.44 106.938 16.728 106.362 16.744C105.978 16.76 105.346 16.768 104.466 16.768L103.218 24.184C103.17 24.472 103.05 24.68 102.858 24.808C102.682 24.936 102.458 25 102.186 25C101.626 25 101.386 24.736 101.466 24.208C101.642 23.184 101.906 21.52 102.258 19.216L102.642 16.792L101.202 16.864C100.722 16.864 100.482 16.68 100.482 16.312C100.482 16.04 100.546 15.816 100.674 15.64C100.818 15.464 101.074 15.368 101.442 15.352C101.922 15.32 102.402 15.304 102.882 15.304C103.138 13.624 103.306 12.544 103.386 12.064C103.898 8.848 105.322 7.24 107.658 7.24ZM112.978 31.216C112.69 31.216 112.474 31.128 112.33 30.952C112.202 30.792 112.154 30.592 112.186 30.352C112.218 30.208 112.258 30.096 112.306 30.016L112.978 28.792C114.402 26.184 115.322 24.472 115.738 23.656C115.178 23.24 114.602 22.48 114.01 21.376C113.434 20.272 112.954 19.04 112.57 17.68C112.202 16.304 112.018 15.024 112.018 13.84V13.528C112.018 13.384 112.106 13.232 112.282 13.072C112.458 12.896 112.714 12.808 113.05 12.808C113.29 12.808 113.442 12.864 113.506 12.976C113.586 13.072 113.634 13.232 113.65 13.456C113.73 14.928 113.93 16.28 114.25 17.512C114.57 18.728 114.938 19.752 115.354 20.584C115.77 21.4 116.17 21.976 116.554 22.312L117.826 19.552C119.09 16.8 120.002 14.736 120.562 13.36C120.658 13.12 120.77 12.96 120.898 12.88C121.026 12.784 121.21 12.736 121.45 12.736C122.042 12.736 122.346 12.976 122.362 13.456C122.362 13.536 122.338 13.624 122.29 13.72C121.394 15.848 120.65 17.568 120.058 18.88C119.466 20.192 118.794 21.568 118.042 23.008C117.37 24.304 116.634 25.672 115.834 27.112C115.05 28.568 114.418 29.72 113.938 30.568C113.698 31 113.378 31.216 112.978 31.216Z"/>
</mask>
<path d="M37.5786 12.736C37.5786 13.872 37.2186 14.856 36.4986 15.688C35.7946 16.504 34.8586 17.128 33.6906 17.56C32.5226 17.992 31.2586 18.208 29.8986 18.208C28.9866 18.208 28.1386 18.104 27.3546 17.896L35.0106 22.936C35.2506 23.096 35.3706 23.288 35.3706 23.512C35.3706 23.8 35.2666 24.072 35.0586 24.328C34.8666 24.568 34.6106 24.688 34.2906 24.688C34.1626 24.688 34.0266 24.664 33.8826 24.616C33.7386 24.552 33.6266 24.488 33.5466 24.424L26.4426 19.36L26.2266 20.512L25.5786 24.28C25.5306 24.552 25.4106 24.76 25.2186 24.904C25.0426 25.048 24.8186 25.12 24.5466 25.12C24.2746 25.12 24.0666 25.048 23.9226 24.904C23.7946 24.744 23.7306 24.56 23.7306 24.352C23.7306 24.256 23.7386 24.184 23.7546 24.136C24.0426 22.712 24.2826 21.424 24.4746 20.272C24.6826 19.104 24.9226 17.68 25.1946 16C25.4986 14.112 25.7306 12.616 25.8906 11.512C25.7946 11.544 25.7226 11.56 25.6746 11.56C25.4666 11.56 25.3386 11.488 25.2906 11.344C25.2426 11.2 25.2186 10.992 25.2186 10.72C25.2186 10.496 25.2746 10.32 25.3866 10.192C25.4986 10.048 25.6986 9.904 25.9866 9.76L26.1546 9.688L26.2266 9.184C26.2746 8.816 26.3866 8.552 26.5626 8.392C26.7386 8.232 26.9866 8.152 27.3066 8.152C27.8986 8.152 28.1626 8.376 28.0986 8.824V8.872C28.7546 8.616 29.3546 8.44 29.8986 8.344C30.4426 8.248 31.0106 8.2 31.6026 8.2C32.8026 8.2 33.8506 8.392 34.7466 8.776C35.6586 9.144 36.3546 9.672 36.8346 10.36C37.3306 11.032 37.5786 11.824 37.5786 12.736ZM31.6026 9.904C31.0266 9.904 30.4426 9.976 29.8506 10.12C29.2586 10.248 28.5866 10.456 27.8346 10.744C27.5466 12.92 27.2746 14.744 27.0186 16.216C27.8346 16.456 28.8266 16.576 29.9946 16.576C31.5786 16.576 32.8906 16.248 33.9306 15.592C34.9866 14.92 35.5146 13.968 35.5146 12.736C35.5146 11.872 35.1626 11.184 34.4586 10.672C33.7546 10.16 32.8026 9.904 31.6026 9.904ZM45.5136 25C43.8656 25 42.4976 24.592 41.4096 23.776C40.3376 22.944 39.8016 21.64 39.8016 19.864C39.8016 18.568 40.0976 17.368 40.6896 16.264C41.2976 15.144 42.1456 14.256 43.2336 13.6C44.3216 12.928 45.5536 12.592 46.9296 12.592C48.0176 12.592 48.9856 12.808 49.8336 13.24C50.6976 13.672 51.3696 14.312 51.8496 15.16C52.3456 15.992 52.5936 17.008 52.5936 18.208C52.5936 19.52 52.2976 20.688 51.7056 21.712C51.1296 22.736 50.3056 23.544 49.2336 24.136C48.1616 24.712 46.9216 25 45.5136 25ZM45.5136 23.512C46.5856 23.512 47.5136 23.288 48.2976 22.84C49.0816 22.376 49.6816 21.744 50.0976 20.944C50.5136 20.128 50.7216 19.216 50.7216 18.208C50.7216 16.944 50.3696 15.952 49.6656 15.232C48.9776 14.496 48.0656 14.128 46.9296 14.128C45.9056 14.128 44.9936 14.392 44.1936 14.92C43.4096 15.432 42.7936 16.128 42.3456 17.008C41.9136 17.888 41.6976 18.84 41.6976 19.864C41.6976 21.16 42.0656 22.096 42.8016 22.672C43.5376 23.232 44.4416 23.512 45.5136 23.512ZM67.7562 13.864C67.7562 13.96 67.7242 14.112 67.6602 14.32C67.6122 14.512 67.5722 14.648 67.5402 14.728C67.4442 14.952 67.3162 15.36 67.1562 15.952C66.8842 16.96 66.6042 18.192 66.3162 19.648C66.0442 21.088 65.9082 22.072 65.9082 22.6C65.9082 22.872 65.9562 23.08 66.0522 23.224C66.1482 23.352 66.3242 23.424 66.5802 23.44C66.7722 23.472 66.9162 23.528 67.0122 23.608C67.1082 23.672 67.1562 23.784 67.1562 23.944C67.1562 24.232 67.0762 24.472 66.9162 24.664C66.7722 24.856 66.5722 24.952 66.3162 24.952C65.6762 24.952 65.2202 24.856 64.9482 24.664C64.6762 24.456 64.4762 24.08 64.3482 23.536C63.4682 24.656 62.1642 25.216 60.4362 25.216C59.3642 25.216 58.4682 24.992 57.7482 24.544C57.0442 24.08 56.5242 23.488 56.1882 22.768C55.8682 22.032 55.7082 21.264 55.7082 20.464C55.7082 19.136 55.9802 17.92 56.5242 16.816C57.0842 15.696 57.8602 14.808 58.8522 14.152C59.8602 13.496 61.0042 13.168 62.2842 13.168C63.0842 13.168 63.7802 13.336 64.3722 13.672C64.9802 14.008 65.4042 14.448 65.6442 14.992L65.8842 14.2C65.9642 13.928 66.0762 13.712 66.2202 13.552C66.3642 13.392 66.5802 13.312 66.8682 13.312C67.1402 13.312 67.3562 13.368 67.5162 13.48C67.6762 13.576 67.7562 13.704 67.7562 13.864ZM64.2762 20.848C64.6762 18.816 64.8762 17.6 64.8762 17.2C64.8762 16.32 64.6042 15.68 64.0602 15.28C63.5162 14.88 62.9242 14.68 62.2842 14.68C61.4042 14.68 60.6042 14.96 59.8842 15.52C59.1802 16.08 58.6202 16.808 58.2042 17.704C57.8042 18.6 57.6042 19.52 57.6042 20.464C57.6042 21.376 57.8202 22.144 58.2522 22.768C58.7002 23.376 59.4442 23.68 60.4842 23.68C61.4282 23.68 62.2522 23.44 62.9562 22.96C63.6602 22.464 64.1002 21.76 64.2762 20.848ZM85.0373 12.736C86.1093 12.736 86.9253 13.048 87.4853 13.672C88.0453 14.296 88.3253 15.128 88.3253 16.168C88.3253 17.096 87.8933 19.784 87.0293 24.232C86.9973 24.44 86.8933 24.624 86.7173 24.784C86.5413 24.928 86.3093 25 86.0213 25C85.7333 25 85.5253 24.92 85.3973 24.76C85.2693 24.584 85.2293 24.392 85.2773 24.184L85.3973 23.584C85.8293 21.216 86.1253 19.528 86.2853 18.52C86.4613 17.512 86.5493 16.728 86.5493 16.168C86.5493 14.84 86.0293 14.176 84.9893 14.176C84.0933 14.176 83.3733 14.616 82.8293 15.496C82.2853 16.36 81.8933 17.424 81.6533 18.688C81.2693 20.672 80.9493 22.504 80.6933 24.184C80.6293 24.696 80.2933 24.952 79.6853 24.952C79.3493 24.952 79.1173 24.872 78.9893 24.712C78.8613 24.552 78.8213 24.36 78.8693 24.136L79.5173 20.584L79.8293 18.808C79.9253 18.248 79.9733 17.72 79.9733 17.224C79.9733 16.344 79.8213 15.632 79.5173 15.088C79.2133 14.544 78.7573 14.272 78.1493 14.272C77.5893 14.272 77.0373 14.576 76.4933 15.184C75.9653 15.776 75.4853 16.696 75.0533 17.944C74.8293 18.568 74.6613 19.12 74.5493 19.6C74.4373 20.064 74.3333 20.584 74.2373 21.16C74.2213 21.272 74.1813 21.496 74.1173 21.832C73.9573 22.664 73.8213 23.472 73.7093 24.256C73.6773 24.464 73.5653 24.632 73.3733 24.76C73.1973 24.888 72.9733 24.952 72.7013 24.952C72.4293 24.952 72.2293 24.888 72.1013 24.76C71.9893 24.616 71.9493 24.44 71.9813 24.232L72.6533 20.32C73.2133 17.024 73.4933 15.264 73.4933 15.04C73.4933 14.72 73.3973 14.448 73.2053 14.224C73.1893 14.192 73.1493 14.152 73.0853 14.104C73.0373 14.04 73.0133 13.968 73.0133 13.888C73.0133 13.664 73.1093 13.464 73.3013 13.288C73.5093 13.112 73.7093 13.024 73.9013 13.024C74.1413 13.024 74.3493 13.136 74.5253 13.36C74.7013 13.584 74.8293 13.824 74.9093 14.08C74.9733 14.304 75.0053 14.544 75.0053 14.8C75.0053 14.944 74.9973 15.056 74.9813 15.136L74.9573 15.304C75.7573 13.64 76.8853 12.808 78.3413 12.808C79.1573 12.808 79.8053 13.064 80.2853 13.576C80.7653 14.088 81.0773 14.76 81.2213 15.592C81.9733 13.688 83.2453 12.736 85.0373 12.736ZM96.3623 11.416C95.9943 11.416 95.6903 11.312 95.4503 11.104C95.2263 10.88 95.1143 10.584 95.1143 10.216C95.1143 9.736 95.2903 9.32 95.6423 8.968C96.0103 8.616 96.4423 8.44 96.9383 8.44C97.3223 8.44 97.6263 8.552 97.8503 8.776C98.0743 8.984 98.1863 9.272 98.1863 9.64C98.1863 10.12 98.0023 10.536 97.6343 10.888C97.2663 11.24 96.8423 11.416 96.3623 11.416ZM93.6263 24.856C93.3383 24.856 93.1223 24.784 92.9783 24.64C92.8343 24.496 92.7863 24.304 92.8343 24.064L94.8743 13.864C94.9223 13.592 95.0423 13.384 95.2343 13.24C95.4263 13.096 95.6663 13.024 95.9543 13.024C96.2423 13.024 96.4583 13.096 96.6023 13.24C96.7463 13.384 96.7943 13.6 96.7463 13.888L94.7063 24.064C94.6423 24.32 94.5143 24.52 94.3223 24.664C94.1303 24.792 93.8983 24.856 93.6263 24.856ZM107.658 7.24C108.586 7.24 109.322 7.496 109.866 8.008C110.426 8.504 110.706 9.176 110.706 10.024C110.706 10.248 110.682 10.48 110.634 10.72C110.57 11.152 110.45 11.456 110.274 11.632C110.098 11.808 109.842 11.896 109.506 11.896C109.202 11.896 108.986 11.816 108.858 11.656C108.73 11.496 108.69 11.304 108.738 11.08C108.818 10.6 108.858 10.224 108.858 9.952C108.858 9.552 108.77 9.264 108.594 9.088C108.418 8.896 108.106 8.8 107.658 8.8C106.954 8.8 106.418 9.088 106.05 9.664C105.682 10.24 105.402 11.112 105.21 12.28L104.97 13.792C104.906 14.08 104.85 14.352 104.802 14.608C104.77 14.848 104.738 15.072 104.706 15.28H106.602C106.81 15.28 106.962 15.336 107.058 15.448C107.17 15.56 107.226 15.704 107.226 15.88C107.226 16.44 106.938 16.728 106.362 16.744C105.978 16.76 105.346 16.768 104.466 16.768L103.218 24.184C103.17 24.472 103.05 24.68 102.858 24.808C102.682 24.936 102.458 25 102.186 25C101.626 25 101.386 24.736 101.466 24.208C101.642 23.184 101.906 21.52 102.258 19.216L102.642 16.792L101.202 16.864C100.722 16.864 100.482 16.68 100.482 16.312C100.482 16.04 100.546 15.816 100.674 15.64C100.818 15.464 101.074 15.368 101.442 15.352C101.922 15.32 102.402 15.304 102.882 15.304C103.138 13.624 103.306 12.544 103.386 12.064C103.898 8.848 105.322 7.24 107.658 7.24ZM112.978 31.216C112.69 31.216 112.474 31.128 112.33 30.952C112.202 30.792 112.154 30.592 112.186 30.352C112.218 30.208 112.258 30.096 112.306 30.016L112.978 28.792C114.402 26.184 115.322 24.472 115.738 23.656C115.178 23.24 114.602 22.48 114.01 21.376C113.434 20.272 112.954 19.04 112.57 17.68C112.202 16.304 112.018 15.024 112.018 13.84V13.528C112.018 13.384 112.106 13.232 112.282 13.072C112.458 12.896 112.714 12.808 113.05 12.808C113.29 12.808 113.442 12.864 113.506 12.976C113.586 13.072 113.634 13.232 113.65 13.456C113.73 14.928 113.93 16.28 114.25 17.512C114.57 18.728 114.938 19.752 115.354 20.584C115.77 21.4 116.17 21.976 116.554 22.312L117.826 19.552C119.09 16.8 120.002 14.736 120.562 13.36C120.658 13.12 120.77 12.96 120.898 12.88C121.026 12.784 121.21 12.736 121.45 12.736C122.042 12.736 122.346 12.976 122.362 13.456C122.362 13.536 122.338 13.624 122.29 13.72C121.394 15.848 120.65 17.568 120.058 18.88C119.466 20.192 118.794 21.568 118.042 23.008C117.37 24.304 116.634 25.672 115.834 27.112C115.05 28.568 114.418 29.72 113.938 30.568C113.698 31 113.378 31.216 112.978 31.216Z" fill="#7C3879"/>
<path d="M36.4986 15.688L35.7424 15.0336L35.7414 15.0348L36.4986 15.688ZM33.6906 17.56L34.0375 18.4979L34.0375 18.4979L33.6906 17.56ZM27.3546 17.896L27.611 16.9294L26.8047 18.7313L27.3546 17.896ZM35.0106 22.936L35.5653 22.1039L35.5605 22.1007L35.0106 22.936ZM35.0586 24.328L34.2825 23.6974L34.2777 23.7033L35.0586 24.328ZM33.8826 24.616L33.4765 25.5298L33.5206 25.5494L33.5664 25.5647L33.8826 24.616ZM33.5466 24.424L34.1713 23.6431L34.1496 23.6258L34.1271 23.6097L33.5466 24.424ZM26.4426 19.36L27.0231 18.5457L25.7482 17.637L25.4597 19.1757L26.4426 19.36ZM26.2266 20.512L25.2437 20.3277L25.2423 20.3351L25.2411 20.3425L26.2266 20.512ZM25.5786 24.28L26.5634 24.4538L26.5641 24.4495L25.5786 24.28ZM25.2186 24.904L24.6186 24.104L24.6017 24.1167L24.5854 24.13L25.2186 24.904ZM23.9226 24.904L23.1417 25.5287L23.1763 25.5719L23.2155 25.6111L23.9226 24.904ZM23.7546 24.136L24.7033 24.4522L24.7226 24.3942L24.7348 24.3342L23.7546 24.136ZM24.4746 20.272L23.49 20.0967L23.4882 20.1076L24.4746 20.272ZM25.1946 16L26.1817 16.1598L26.1819 16.159L25.1946 16ZM25.8906 11.512L26.8803 11.6554L27.1129 10.0505L25.5744 10.5633L25.8906 11.512ZM25.2906 11.344L26.2393 11.0278L26.2393 11.0278L25.2906 11.344ZM25.3866 10.192L26.1392 10.8505L26.1582 10.8288L26.1759 10.8059L25.3866 10.192ZM25.9866 9.76L25.5927 8.84085L25.5657 8.85243L25.5394 8.86557L25.9866 9.76ZM26.1546 9.688L26.5485 10.6071L27.0651 10.3858L27.1445 9.82942L26.1546 9.688ZM26.2266 9.184L27.2166 9.32543L27.2182 9.31334L26.2266 9.184ZM26.5626 8.392L25.8899 7.65206L25.8899 7.65206L26.5626 8.392ZM28.0986 8.824L27.1086 8.68258L27.0986 8.75293V8.824H28.0986ZM28.0986 8.872H27.0986V10.3357L28.4621 9.80358L28.0986 8.872ZM29.8986 8.344L30.0724 9.32878L30.0724 9.32878L29.8986 8.344ZM34.7466 8.776L34.3527 9.69514L34.3625 9.69935L34.3724 9.70335L34.7466 8.776ZM36.8346 10.36L36.0145 10.9322L36.0221 10.9431L36.03 10.9539L36.8346 10.36ZM29.8506 10.12L30.0619 11.0974L30.0745 11.0947L30.0869 11.0917L29.8506 10.12ZM27.8346 10.744L27.4769 9.81014L26.9213 10.0229L26.8432 10.6128L27.8346 10.744ZM27.0186 16.216L26.0334 16.0447L25.8805 16.9236L26.7364 17.1754L27.0186 16.216ZM33.9306 15.592L34.4641 16.4378L34.4675 16.4357L33.9306 15.592ZM34.4586 10.672L33.8704 11.4807L33.8704 11.4807L34.4586 10.672ZM36.5786 12.736C36.5786 13.6402 36.2997 14.3897 35.7424 15.0336L37.2548 16.3424C38.1375 15.3223 38.5786 14.1038 38.5786 12.736H36.5786ZM35.7414 15.0348C35.164 15.704 34.378 16.2396 33.3437 16.6221L34.0375 18.4979C35.3392 18.0164 36.4251 17.304 37.2558 16.3412L35.7414 15.0348ZM33.3437 16.6221C32.2965 17.0094 31.1511 17.208 29.8986 17.208V19.208C31.3661 19.208 32.7487 18.9746 34.0375 18.4979L33.3437 16.6221ZM29.8986 17.208C29.0626 17.208 28.3017 17.1127 27.611 16.9294L27.0982 18.8626C27.9755 19.0953 28.9106 19.208 29.8986 19.208V17.208ZM26.8047 18.7313L34.4607 23.7713L35.5605 22.1007L27.9045 17.0607L26.8047 18.7313ZM34.4559 23.7681C34.489 23.7901 34.4654 23.7825 34.4326 23.73C34.4157 23.703 34.3991 23.6683 34.3873 23.6272C34.3754 23.586 34.3706 23.5465 34.3706 23.512H36.3706C36.3706 22.8585 35.9937 22.3895 35.5653 22.1039L34.4559 23.7681ZM34.3706 23.512C34.3706 23.5375 34.3678 23.5924 34.2825 23.6974L35.8347 24.9586C36.1654 24.5516 36.3706 24.0625 36.3706 23.512H34.3706ZM34.2777 23.7033C34.2723 23.7101 34.2714 23.7098 34.2762 23.706C34.2785 23.7042 34.2816 23.7019 34.2856 23.6994C34.2896 23.6969 34.2938 23.6946 34.2982 23.6925C34.3073 23.6882 34.3136 23.6867 34.3146 23.6865C34.3153 23.6864 34.308 23.688 34.2906 23.688V25.688C34.8999 25.688 35.4488 25.441 35.8395 24.9527L34.2777 23.7033ZM34.2906 23.688C34.2879 23.688 34.2593 23.6875 34.1988 23.6673L33.5664 25.5647C33.7939 25.6405 34.0373 25.688 34.2906 25.688V23.688ZM34.2887 23.7022C34.241 23.681 34.208 23.6639 34.1867 23.6518C34.1648 23.6392 34.162 23.6357 34.1713 23.6431L32.9219 25.2049C33.0944 25.3429 33.2914 25.4475 33.4765 25.5298L34.2887 23.7022ZM34.1271 23.6097L27.0231 18.5457L25.8621 20.1743L32.9661 25.2383L34.1271 23.6097ZM25.4597 19.1757L25.2437 20.3277L27.2095 20.6963L27.4255 19.5443L25.4597 19.1757ZM25.2411 20.3425L24.5931 24.1105L26.5641 24.4495L27.2121 20.6815L25.2411 20.3425ZM24.5938 24.1062C24.5871 24.1445 24.5802 24.1511 24.5864 24.1403C24.5894 24.1351 24.5941 24.1282 24.6007 24.1207C24.6074 24.1132 24.6138 24.1076 24.6186 24.104L25.8186 25.704C26.2444 25.3847 26.4784 24.9353 26.5634 24.4538L24.5938 24.1062ZM24.5854 24.13C24.5905 24.1258 24.5965 24.1218 24.6024 24.1186C24.6084 24.1154 24.6122 24.1141 24.6126 24.114C24.6135 24.1137 24.5946 24.12 24.5466 24.12V26.12C25.0023 26.12 25.4638 25.9954 25.8518 25.678L24.5854 24.13ZM24.5466 24.12C24.4967 24.12 24.491 24.1132 24.5137 24.121C24.5257 24.1252 24.5439 24.1329 24.5656 24.1462C24.5875 24.1596 24.6095 24.1767 24.6297 24.1969L23.2155 25.6111C23.6033 25.9989 24.1013 26.12 24.5466 26.12V24.12ZM24.7035 24.2793C24.7067 24.2834 24.7159 24.2967 24.7231 24.3175C24.7264 24.327 24.7284 24.3356 24.7295 24.3424C24.7306 24.3491 24.7306 24.3526 24.7306 24.352H22.7306C22.7306 24.7833 22.8696 25.1885 23.1417 25.5287L24.7035 24.2793ZM24.7306 24.352C24.7306 24.3298 24.7316 24.3262 24.7305 24.3364C24.7298 24.3421 24.7283 24.3547 24.7247 24.3726C24.7212 24.3902 24.7148 24.4178 24.7033 24.4522L22.8059 23.8198C22.7378 24.0241 22.7306 24.2268 22.7306 24.352H24.7306ZM24.7348 24.3342C25.0245 22.9016 25.2667 21.602 25.461 20.4364L23.4882 20.1076C23.2985 21.246 23.0607 22.5224 22.7744 23.9378L24.7348 24.3342ZM25.4591 20.4473C25.6683 19.2725 25.9092 17.843 26.1817 16.1598L24.2074 15.8402C23.936 17.517 23.6969 18.9355 23.4901 20.0967L25.4591 20.4473ZM26.1819 16.159C26.4862 14.2689 26.7192 12.767 26.8803 11.6554L24.9009 11.3686C24.742 12.465 24.511 13.9551 24.2073 15.841L26.1819 16.159ZM25.5744 10.5633C25.5479 10.5721 25.5404 10.5734 25.5477 10.5718C25.5519 10.5709 25.5641 10.5683 25.5829 10.5658C25.601 10.5634 25.6327 10.56 25.6746 10.56V12.56C25.8942 12.56 26.0961 12.4976 26.2068 12.4607L25.5744 10.5633ZM25.6746 10.56C25.6748 10.56 25.7777 10.5584 25.9129 10.6344C26.0732 10.7246 26.1876 10.8729 26.2393 11.0278L24.3419 11.6602C24.4415 11.9591 24.644 12.2154 24.9323 12.3776C25.1955 12.5256 25.4664 12.56 25.6746 12.56V10.56ZM26.2393 11.0278C26.2436 11.0406 26.2368 11.0246 26.23 10.9654C26.2235 10.9087 26.2186 10.8283 26.2186 10.72H24.2186C24.2186 11.0286 24.2431 11.3637 24.3419 11.6602L26.2393 11.0278ZM26.2186 10.72C26.2186 10.6898 26.2225 10.6949 26.2135 10.7232C26.2035 10.7548 26.1812 10.8025 26.1392 10.8505L24.634 9.53349C24.3177 9.89506 24.2186 10.3319 24.2186 10.72H26.2186ZM26.1759 10.8059C26.1569 10.8304 26.1571 10.8219 26.2049 10.7875C26.2507 10.7546 26.324 10.7093 26.4338 10.6544L25.5394 8.86557C25.205 9.03276 24.8462 9.25794 24.5972 9.57806L26.1759 10.8059ZM26.3805 10.6791L26.5485 10.6071L25.7607 8.76885L25.5927 8.84085L26.3805 10.6791ZM27.1445 9.82942L27.2165 9.32542L25.2366 9.04258L25.1646 9.54658L27.1445 9.82942ZM27.2182 9.31334C27.2337 9.19436 27.2552 9.1288 27.2672 9.10055C27.2782 9.07467 27.2739 9.09686 27.2353 9.13194L25.8899 7.65206C25.4637 8.0395 25.2973 8.57679 25.235 9.05466L27.2182 9.31334ZM27.2353 9.13194C27.223 9.14313 27.2108 9.15153 27.2007 9.15726C27.1908 9.16285 27.1856 9.16435 27.1876 9.16371C27.1928 9.16203 27.228 9.152 27.3066 9.152V7.152C26.8251 7.152 26.3057 7.27409 25.8899 7.65206L27.2353 9.13194ZM27.3066 9.152C27.3495 9.152 27.3816 9.15405 27.4041 9.15652C27.4267 9.15901 27.4365 9.16157 27.4359 9.16142C27.4354 9.16128 27.421 9.15752 27.3974 9.14607C27.3734 9.13439 27.3393 9.11447 27.3016 9.08251C27.2177 9.01134 27.1562 8.91471 27.1266 8.81525C27.1004 8.72691 27.1099 8.67347 27.1086 8.68258L29.0885 8.96542C29.1523 8.51907 29.0691 7.95928 28.5956 7.55749C28.1928 7.2157 27.6859 7.152 27.3066 7.152V9.152ZM27.0986 8.824V8.872H29.0986V8.824H27.0986ZM28.4621 9.80358C29.0726 9.56534 29.6081 9.41072 30.0724 9.32878L29.7248 7.35922C29.1011 7.46928 28.4366 7.66666 27.7351 7.94042L28.4621 9.80358ZM30.0724 9.32878C30.5551 9.2436 31.0647 9.2 31.6026 9.2V7.2C30.9565 7.2 30.3301 7.2524 29.7248 7.35922L30.0724 9.32878ZM31.6026 9.2C32.6976 9.2 33.6064 9.37529 34.3527 9.69514L35.1405 7.85685C34.0948 7.4087 32.9076 7.2 31.6026 7.2V9.2ZM34.3724 9.70335C35.1361 10.0115 35.6635 10.4292 36.0145 10.9322L37.6547 9.78782C37.0457 8.91483 36.1811 8.2765 35.1208 7.84865L34.3724 9.70335ZM36.03 10.9539C36.3873 11.4379 36.5786 12.017 36.5786 12.736H38.5786C38.5786 11.631 38.2739 10.6261 37.6392 9.76615L36.03 10.9539ZM31.6026 8.904C30.9425 8.904 30.2792 8.98659 29.6142 9.14833L30.0869 11.0917C30.606 10.9654 31.1107 10.904 31.6026 10.904V8.904ZM29.6393 9.14259C28.9843 9.2842 28.2621 9.50946 27.4769 9.81014L28.1922 11.6779C28.9111 11.4025 29.5329 11.2118 30.0619 11.0974L29.6393 9.14259ZM26.8432 10.6128C26.5563 12.781 26.2863 14.5906 26.0334 16.0447L28.0038 16.3873C28.2629 14.8974 28.5369 13.059 28.826 10.8752L26.8432 10.6128ZM26.7364 17.1754C27.671 17.4502 28.764 17.576 29.9946 17.576V15.576C28.8892 15.576 27.9982 15.4618 27.3008 15.2566L26.7364 17.1754ZM29.9946 17.576C31.7137 17.576 33.2244 17.2198 34.4641 16.4378L33.3971 14.7462C32.5568 15.2762 31.4434 15.576 29.9946 15.576V17.576ZM34.4675 16.4357C35.8063 15.5837 36.5146 14.3165 36.5146 12.736H34.5146C34.5146 13.6195 34.1669 14.2563 33.3937 14.7483L34.4675 16.4357ZM36.5146 12.736C36.5146 11.5492 36.0072 10.5618 35.0468 9.86326L33.8704 11.4807C34.318 11.8062 34.5146 12.1948 34.5146 12.736H36.5146ZM35.0468 9.86326C34.1179 9.18773 32.9357 8.904 31.6026 8.904V10.904C32.6695 10.904 33.3913 11.1323 33.8704 11.4807L35.0468 9.86326ZM41.4096 23.776L40.7965 24.566L40.803 24.571L40.8096 24.576L41.4096 23.776ZM40.6896 16.264L39.8107 15.7869L39.8083 15.7914L40.6896 16.264ZM43.2336 13.6L43.75 14.4564L43.7591 14.4508L43.2336 13.6ZM49.8336 13.24L49.3797 14.1311L49.3864 14.1344L49.8336 13.24ZM51.8496 15.16L50.9793 15.6526L50.9849 15.6624L50.9906 15.6721L51.8496 15.16ZM51.7056 21.712L50.8398 21.2115L50.834 21.2217L51.7056 21.712ZM49.2336 24.136L49.7069 25.017L49.717 25.0114L49.2336 24.136ZM48.2976 22.84L48.7937 23.7082L48.8004 23.7045L48.8069 23.7006L48.2976 22.84ZM50.0976 20.944L50.9848 21.4054L50.9885 21.3982L50.0976 20.944ZM49.6656 15.232L48.9351 15.9149L48.9427 15.9231L48.9506 15.9311L49.6656 15.232ZM44.1936 14.92L44.7404 15.7573L44.7444 15.7546L44.1936 14.92ZM42.3456 17.008L41.4544 16.5543L41.4511 16.5608L41.4479 16.5673L42.3456 17.008ZM42.8016 22.672L42.1852 23.4596L42.1961 23.4678L42.8016 22.672ZM45.5136 24C44.035 24 42.8904 23.6366 42.0096 22.976L40.8096 24.576C42.1048 25.5474 43.6962 26 45.5136 26V24ZM42.0227 22.986C41.2663 22.399 40.8016 21.4346 40.8016 19.864H38.8016C38.8016 21.8454 39.4089 23.489 40.7965 24.566L42.0227 22.986ZM40.8016 19.864C40.8016 18.727 41.0596 17.6901 41.5709 16.7366L39.8083 15.7914C39.1356 17.0459 38.8016 18.409 38.8016 19.864H40.8016ZM41.5684 16.7411C42.0918 15.777 42.8149 15.0202 43.7499 14.4564L42.7172 12.7436C41.4763 13.4918 40.5034 14.511 39.8107 15.7869L41.5684 16.7411ZM43.7591 14.4508C44.6771 13.8838 45.7245 13.592 46.9296 13.592V11.592C45.3827 11.592 43.9661 11.9722 42.7081 12.7492L43.7591 14.4508ZM46.9296 13.592C47.8825 13.592 48.6912 13.7803 49.3797 14.131L50.2875 12.349C49.28 11.8357 48.1527 11.592 46.9296 11.592V13.592ZM49.3864 14.1344C50.0709 14.4767 50.5964 14.976 50.9793 15.6526L52.7199 14.6674C52.1428 13.648 51.3243 12.8673 50.2808 12.3456L49.3864 14.1344ZM50.9906 15.6721C51.3746 16.3162 51.5936 17.1455 51.5936 18.208H53.5936C53.5936 16.8705 53.3166 15.6678 52.7085 14.6479L50.9906 15.6721ZM51.5936 18.208C51.5936 19.3639 51.3346 20.3558 50.8399 21.2115L52.5713 22.2125C53.2606 21.0202 53.5936 19.6761 53.5936 18.208H51.5936ZM50.834 21.2217C50.3531 22.0768 49.6667 22.7544 48.7502 23.2606L49.717 25.0114C50.9444 24.3336 51.9061 23.3952 52.5772 22.2023L50.834 21.2217ZM48.7603 23.2551C47.8552 23.7414 46.7825 24 45.5136 24V26C47.0607 26 48.468 25.6826 49.7069 25.0169L48.7603 23.2551ZM45.5136 24.512C46.7269 24.512 47.8326 24.2575 48.7937 23.7082L47.8015 21.9718C47.1946 22.3185 46.4443 22.512 45.5136 22.512V24.512ZM48.8069 23.7006C49.7499 23.1425 50.4817 22.3729 50.9848 21.4054L49.2104 20.4826C48.8815 21.1151 48.4132 21.6095 47.7883 21.9794L48.8069 23.7006ZM50.9885 21.3982C51.4832 20.4278 51.7216 19.3577 51.7216 18.208H49.7216C49.7216 19.0743 49.544 19.8282 49.2067 20.4898L50.9885 21.3982ZM51.7216 18.208C51.7216 16.7528 51.3111 15.4845 50.3806 14.5329L48.9506 15.9311C49.4281 16.4195 49.7216 17.1352 49.7216 18.208H51.7216ZM50.3961 14.5491C49.494 13.584 48.3036 13.128 46.9296 13.128V15.128C47.8276 15.128 48.4612 15.408 48.9351 15.9149L50.3961 14.5491ZM46.9296 13.128C45.7238 13.128 44.6175 13.442 43.6428 14.0854L44.7444 15.7546C45.3697 15.342 46.0874 15.128 46.9296 15.128V13.128ZM43.6468 14.0827C42.7084 14.6956 41.9772 15.5274 41.4544 16.5543L43.2368 17.4617C43.61 16.7286 44.1108 16.1684 44.7404 15.7573L43.6468 14.0827ZM41.4479 16.5673C40.9456 17.5906 40.6976 18.6942 40.6976 19.864H42.6976C42.6976 18.9858 42.8816 18.1854 43.2433 17.4487L41.4479 16.5673ZM40.6976 19.864C40.6976 21.3414 41.1226 22.6279 42.1853 23.4595L43.4179 21.8845C43.0086 21.5641 42.6976 20.9786 42.6976 19.864H40.6976ZM42.1961 23.4678C43.1329 24.1807 44.2591 24.512 45.5136 24.512V22.512C44.6241 22.512 43.9422 22.2833 43.4071 21.8762L42.1961 23.4678ZM67.6602 14.32L66.7044 14.0259L66.6965 14.0515L66.69 14.0775L67.6602 14.32ZM67.5402 14.728L68.4593 15.1219L68.4641 15.1107L68.4686 15.0994L67.5402 14.728ZM67.1562 15.952L66.1908 15.6911L66.1907 15.6915L67.1562 15.952ZM66.3162 19.648L65.3351 19.454L65.3335 19.4624L66.3162 19.648ZM66.0522 23.224L65.2201 23.7787L65.2355 23.8018L65.2522 23.824L66.0522 23.224ZM66.5802 23.44L66.7446 22.4536L66.6938 22.4452L66.6425 22.4419L66.5802 23.44ZM67.0122 23.608L66.372 24.3762L66.413 24.4104L66.4575 24.4401L67.0122 23.608ZM66.9162 24.664L66.1479 24.0238L66.1315 24.0435L66.1162 24.064L66.9162 24.664ZM64.9482 24.664L64.3407 25.4584L64.3559 25.47L64.3715 25.481L64.9482 24.664ZM64.3482 23.536L65.3216 23.307L64.8456 21.2842L63.5618 22.9182L64.3482 23.536ZM57.7482 24.544L57.1978 25.379L57.2088 25.3862L57.2199 25.3931L57.7482 24.544ZM56.1882 22.768L55.2711 23.1667L55.2764 23.1789L55.282 23.1909L56.1882 22.768ZM56.5242 16.816L55.6297 16.3688L55.6271 16.374L56.5242 16.816ZM58.8522 14.152L58.3067 13.3138L58.3006 13.3179L58.8522 14.152ZM64.3722 13.672L63.8785 14.5417L63.8885 14.5472L64.3722 13.672ZM65.6442 14.992L64.7292 15.3956L65.8185 17.8647L66.6012 15.282L65.6442 14.992ZM65.8842 14.2L66.8412 14.49L66.8435 14.4822L65.8842 14.2ZM66.2202 13.552L65.4769 12.883L65.4769 12.883L66.2202 13.552ZM67.5162 13.48L66.9427 14.2992L66.9715 14.3194L67.0017 14.3375L67.5162 13.48ZM64.2762 20.848L63.295 20.6549L63.2943 20.6585L64.2762 20.848ZM64.0602 15.28L64.6525 14.4743L64.6525 14.4743L64.0602 15.28ZM59.8842 15.52L59.2702 14.7306L59.2616 14.7374L59.8842 15.52ZM58.2042 17.704L57.2972 17.2829L57.294 17.2896L57.291 17.2963L58.2042 17.704ZM58.2522 22.768L57.43 23.3372L57.4384 23.3493L57.4471 23.3612L58.2522 22.768ZM62.9562 22.96L63.5195 23.7862L63.5258 23.7819L63.5321 23.7775L62.9562 22.96ZM66.7562 13.864C66.7562 13.8486 66.7568 13.837 66.7573 13.8301C66.7578 13.8231 66.7583 13.8191 66.7584 13.8185C66.7585 13.818 66.7574 13.8259 66.7536 13.844C66.7458 13.8812 66.7307 13.9404 66.7044 14.0259L68.6159 14.6141C68.6817 14.4004 68.7562 14.123 68.7562 13.864H66.7562ZM66.69 14.0775C66.6681 14.1649 66.6498 14.233 66.6348 14.2838C66.6188 14.3382 66.611 14.3584 66.6117 14.3566L68.4686 15.0994C68.5281 14.9508 68.5817 14.757 68.6303 14.5625L66.69 14.0775ZM66.621 14.3341C66.4939 14.6306 66.3502 15.1014 66.1908 15.6911L68.1215 16.2129C68.2822 15.6186 68.3944 15.2734 68.4593 15.1219L66.621 14.3341ZM66.1907 15.6915C65.9109 16.7284 65.6259 17.9841 65.3352 19.454L67.2972 19.842C67.5824 18.3999 67.8574 17.1916 68.1216 16.2125L66.1907 15.6915ZM65.3335 19.4624C65.0635 20.8921 64.9082 21.9647 64.9082 22.6H66.9082C66.9082 22.1793 67.0248 21.2839 67.2988 19.8336L65.3335 19.4624ZM64.9082 22.6C64.9082 22.9655 64.9685 23.4012 65.2201 23.7787L66.8842 22.6693C66.9168 22.7181 66.9215 22.748 66.9186 22.7351C66.9155 22.7218 66.9082 22.6799 66.9082 22.6H64.9082ZM65.2522 23.824C65.6068 24.2968 66.1433 24.4146 66.5178 24.4381L66.6425 22.4419C66.5878 22.4385 66.5938 22.4317 66.6348 22.4485C66.6823 22.4679 66.7728 22.5182 66.8522 22.624L65.2522 23.824ZM66.4158 24.4264C66.4606 24.4339 66.4757 24.4403 66.4697 24.438C66.4638 24.4357 66.4241 24.4196 66.372 24.3762L67.6523 22.8398C67.3641 22.5996 67.0225 22.4999 66.7446 22.4536L66.4158 24.4264ZM66.4575 24.4401C66.3348 24.3583 66.2489 24.2457 66.201 24.1339C66.1578 24.0331 66.1562 23.9591 66.1562 23.944H68.1562C68.1562 23.5909 68.041 23.092 67.5669 22.7759L66.4575 24.4401ZM66.1562 23.944C66.1562 23.9952 66.1491 24.0188 66.1475 24.0238C66.1466 24.0265 66.1463 24.0267 66.147 24.0254C66.1477 24.024 66.1483 24.0233 66.1479 24.0238L67.6844 25.3042C68.0166 24.9056 68.1562 24.4283 68.1562 23.944H66.1562ZM66.1162 24.064C66.1325 24.0422 66.1689 24.0056 66.2254 23.9785C66.2798 23.9524 66.3174 23.952 66.3162 23.952V25.952C66.8625 25.952 67.3691 25.7267 67.7162 25.264L66.1162 24.064ZM66.3162 23.952C66.0417 23.952 65.8406 23.931 65.7002 23.9015C65.5559 23.8711 65.5145 23.8398 65.5248 23.847L64.3715 25.481C64.9082 25.8598 65.631 25.952 66.3162 25.952V23.952ZM65.5556 23.8696C65.5579 23.8714 65.5256 23.8477 65.477 23.7564C65.4277 23.6637 65.3716 23.5197 65.3216 23.307L63.3747 23.765C63.5246 24.402 63.8003 25.0451 64.3407 25.4584L65.5556 23.8696ZM63.5618 22.9182C62.9122 23.745 61.93 24.216 60.4362 24.216V26.216C62.3984 26.216 64.0241 25.567 65.1345 24.1538L63.5618 22.9182ZM60.4362 24.216C59.502 24.216 58.801 24.0213 58.2765 23.6949L57.2199 25.3931C58.1353 25.9627 59.2263 26.216 60.4362 26.216V24.216ZM58.2985 23.709C57.7391 23.3403 57.3473 22.8871 57.0943 22.3451L55.282 23.1909C55.7011 24.0889 56.3493 24.8197 57.1978 25.379L58.2985 23.709ZM57.1052 22.3693C56.8398 21.7587 56.7082 21.1264 56.7082 20.464H54.7082C54.7082 21.4016 54.8966 22.3053 55.2711 23.1667L57.1052 22.3693ZM56.7082 20.464C56.7082 19.2769 56.9502 18.2138 57.4212 17.258L55.6271 16.374C55.0101 17.6262 54.7082 18.9951 54.7082 20.464H56.7082ZM57.4186 17.2632C57.9045 16.2914 58.5658 15.5402 59.4038 14.9861L58.3006 13.3179C57.1545 14.0758 56.2638 15.1006 55.6297 16.3688L57.4186 17.2632ZM59.3976 14.9901C60.2327 14.4467 61.1848 14.168 62.2842 14.168V12.168C60.8236 12.168 59.4876 12.5453 58.3067 13.3139L59.3976 14.9901ZM62.2842 14.168C62.9416 14.168 63.4615 14.305 63.8786 14.5417L64.8658 12.8023C64.0988 12.367 63.2267 12.168 62.2842 12.168V14.168ZM63.8885 14.5472C64.3385 14.7959 64.5918 15.0842 64.7292 15.3956L66.5591 14.5884C66.2165 13.8118 65.6218 13.2201 64.8558 12.7968L63.8885 14.5472ZM66.6012 15.282L66.8412 14.49L64.9271 13.91L64.6871 14.702L66.6012 15.282ZM66.8435 14.4822C66.8941 14.3101 66.946 14.2404 66.9635 14.221L65.4769 12.883C65.2063 13.1836 65.0342 13.5459 64.9248 13.9178L66.8435 14.4822ZM66.9635 14.221C66.9434 14.2433 66.9204 14.263 66.8964 14.2791C66.8725 14.2949 66.8518 14.3044 66.8375 14.3097C66.8104 14.3198 66.8142 14.312 66.8682 14.312V12.312C66.3972 12.312 65.8687 12.4477 65.4769 12.883L66.9635 14.221ZM66.8682 14.312C66.9372 14.312 66.9727 14.3193 66.9832 14.322C66.9919 14.3243 66.9733 14.3207 66.9427 14.2992L68.0896 12.6608C67.7072 12.3931 67.2672 12.312 66.8682 12.312V14.312ZM67.0017 14.3375C66.9776 14.3231 66.9094 14.2759 66.8482 14.178C66.7828 14.0734 66.7562 13.9597 66.7562 13.864H68.7562C68.7562 13.2888 68.4327 12.8637 68.0307 12.6225L67.0017 14.3375ZM65.2573 21.0411C65.4582 20.0208 65.6105 19.1972 65.7129 18.5743C65.8104 17.9816 65.8762 17.4959 65.8762 17.2H63.8762C63.8762 17.3041 63.8419 17.6264 63.7394 18.2497C63.6419 18.8428 63.4941 19.6432 63.295 20.6549L65.2573 21.0411ZM65.8762 17.2C65.8762 16.1078 65.5276 15.1178 64.6525 14.4743L63.4678 16.0857C63.6807 16.2422 63.8762 16.5322 63.8762 17.2H65.8762ZM64.6525 14.4743C63.9469 13.9555 63.1495 13.68 62.2842 13.68V15.68C62.6989 15.68 63.0854 15.8045 63.4678 16.0857L64.6525 14.4743ZM62.2842 13.68C61.1732 13.68 60.1588 14.0395 59.2702 14.7306L60.4981 16.3094C61.0495 15.8805 61.6351 15.68 62.2842 15.68V13.68ZM59.2616 14.7374C58.4244 15.4034 57.7721 16.26 57.2972 17.2829L59.1112 18.1251C59.4682 17.356 59.9359 16.7566 60.5067 16.3026L59.2616 14.7374ZM57.291 17.2963C56.8361 18.3154 56.6042 19.374 56.6042 20.464H58.6042C58.6042 19.666 58.7723 18.8846 59.1173 18.1117L57.291 17.2963ZM56.6042 20.464C56.6042 21.5376 56.8605 22.5146 57.43 23.3372L59.0744 22.1988C58.7798 21.7734 58.6042 21.2144 58.6042 20.464H56.6042ZM57.4471 23.3612C58.1488 24.3135 59.2552 24.68 60.4842 24.68V22.68C59.6331 22.68 59.2515 22.4385 59.0572 22.1748L57.4471 23.3612ZM60.4842 24.68C61.6065 24.68 62.6317 24.3915 63.5195 23.7862L62.3928 22.1338C61.8726 22.4885 61.2498 22.68 60.4842 22.68V24.68ZM63.5321 23.7775C64.4651 23.1201 65.0373 22.1815 65.258 21.0375L63.2943 20.6585C63.1631 21.3385 62.8552 21.8079 62.3802 22.1425L63.5321 23.7775ZM87.4853 13.672L86.741 14.3399L86.741 14.3399L87.4853 13.672ZM87.0293 24.232L86.0476 24.0413L86.0439 24.0606L86.0409 24.0799L87.0293 24.232ZM86.7173 24.784L87.3505 25.558L87.3707 25.5415L87.39 25.5239L86.7173 24.784ZM85.3973 24.76L84.5885 25.3482L84.6021 25.3668L84.6164 25.3847L85.3973 24.76ZM85.2773 24.184L86.2517 24.4089L86.255 24.3945L86.2579 24.3801L85.2773 24.184ZM85.3973 23.584L86.3779 23.7801L86.3795 23.7718L86.381 23.7635L85.3973 23.584ZM86.2853 18.52L85.3002 18.348L85.2989 18.3556L85.2976 18.3632L86.2853 18.52ZM82.8293 15.496L83.6755 16.0288L83.6799 16.0218L82.8293 15.496ZM81.6533 18.688L82.6351 18.878L82.6357 18.8745L81.6533 18.688ZM80.6933 24.184L79.7047 24.0334L79.7027 24.0466L79.701 24.06L80.6933 24.184ZM78.9893 24.712L78.2084 25.3367L78.2084 25.3367L78.9893 24.712ZM78.8693 24.136L79.8471 24.3455L79.8503 24.3305L79.853 24.3155L78.8693 24.136ZM79.5173 20.584L80.5011 20.7635L80.5022 20.757L79.5173 20.584ZM79.8293 18.808L80.8142 18.981L80.8149 18.977L79.8293 18.808ZM76.4933 15.184L75.748 14.5172L75.747 14.5184L76.4933 15.184ZM75.0533 17.944L75.9945 18.2819L75.9983 18.2711L75.0533 17.944ZM74.5493 19.6L75.5214 19.8346L75.5231 19.8272L74.5493 19.6ZM74.2373 21.16L73.2509 20.9956L73.249 21.0071L73.2473 21.0186L74.2373 21.16ZM74.1173 21.832L75.0993 22.0208L75.0996 22.0191L74.1173 21.832ZM73.7093 24.256L74.6977 24.4081L74.6992 24.3974L73.7093 24.256ZM73.3733 24.76L72.8186 23.9279L72.8016 23.9393L72.7851 23.9513L73.3733 24.76ZM72.1013 24.76L71.3119 25.3739L71.3502 25.4231L71.3942 25.4671L72.1013 24.76ZM71.9813 24.232L70.9957 24.0627L70.9942 24.0713L70.9929 24.0799L71.9813 24.232ZM72.6533 20.32L73.6388 20.4893L73.6392 20.4875L72.6533 20.32ZM73.2053 14.224L72.3109 14.6712L72.3659 14.7813L72.446 14.8748L73.2053 14.224ZM73.0853 14.104L72.2853 14.704L72.371 14.8183L72.4853 14.904L73.0853 14.104ZM73.3013 13.288L72.6553 12.5246L72.6402 12.5374L72.6256 12.5508L73.3013 13.288ZM74.5253 13.36L73.739 13.9778L73.739 13.9778L74.5253 13.36ZM74.9093 14.08L75.8708 13.8053L75.8674 13.7935L75.8638 13.7817L74.9093 14.08ZM74.9813 15.136L74.0007 14.9399L73.9953 14.9671L73.9913 14.9946L74.9813 15.136ZM74.9573 15.304L73.9673 15.1626L75.8585 15.7373L74.9573 15.304ZM80.2853 13.576L79.5557 14.2599L79.5557 14.2599L80.2853 13.576ZM81.2213 15.592L80.2359 15.7625L80.8432 19.2714L82.1514 15.9593L81.2213 15.592ZM85.0373 13.736C85.9097 13.736 86.4206 13.9828 86.741 14.3399L88.2295 13.0041C87.43 12.1132 86.3089 11.736 85.0373 11.736V13.736ZM86.741 14.3399C87.0993 14.7391 87.3253 15.3128 87.3253 16.168H89.3253C89.3253 14.9432 88.9912 13.8529 88.2295 13.0041L86.741 14.3399ZM87.3253 16.168C87.3253 16.5393 87.2319 17.3653 87.014 18.7213C86.8004 20.05 86.4787 21.822 86.0476 24.0413L88.0109 24.4227C88.4438 22.194 88.7701 20.398 88.9886 19.0387C89.2027 17.7067 89.3253 16.7247 89.3253 16.168H87.3253ZM86.0409 24.0799C86.042 24.073 86.0439 24.0647 86.047 24.0557C86.0501 24.0468 86.0536 24.0394 86.0567 24.0339C86.0632 24.0225 86.0636 24.0268 86.0446 24.0441L87.39 25.5239C87.7121 25.2311 87.9463 24.8477 88.0177 24.3841L86.0409 24.0799ZM86.084 24.01C86.0922 24.0034 86.1002 23.9983 86.1069 23.9947C86.1135 23.9912 86.1167 23.9904 86.1149 23.9909C86.1107 23.9922 86.0829 24 86.0213 24V26C86.4773 26 86.9526 25.8835 87.3505 25.558L86.084 24.01ZM86.0213 24C85.9659 24 85.9697 23.9918 86.0083 24.0067C86.0289 24.0146 86.0576 24.0284 86.0895 24.0513C86.1219 24.0744 86.1522 24.1029 86.1782 24.1353L84.6164 25.3847C85.0025 25.8674 85.559 26 86.0213 26V24ZM86.206 24.1718C86.2161 24.1858 86.2383 24.2228 86.2503 24.28C86.2623 24.3378 86.2573 24.3846 86.2517 24.4089L84.3029 23.9591C84.1883 24.4556 84.294 24.9432 84.5885 25.3482L86.206 24.1718ZM86.2579 24.3801L86.3779 23.7801L84.4167 23.3879L84.2967 23.9879L86.2579 24.3801ZM86.381 23.7635C86.8131 21.3953 87.1109 19.6972 87.2729 18.6768L85.2976 18.3632C85.1396 19.3588 84.8455 21.0367 84.4135 23.4045L86.381 23.7635ZM87.2704 18.692C87.4496 17.6655 87.5493 16.8146 87.5493 16.168H85.5493C85.5493 16.6414 85.473 17.3585 85.3002 18.348L87.2704 18.692ZM87.5493 16.168C87.5493 15.4008 87.4037 14.6412 86.9466 14.0574C86.453 13.4272 85.7375 13.176 84.9893 13.176V15.176C85.2811 15.176 85.3455 15.2568 85.372 15.2906C85.4348 15.3708 85.5493 15.6072 85.5493 16.168H87.5493ZM84.9893 13.176C83.6879 13.176 82.6717 13.8492 81.9787 14.9702L83.6799 16.0218C84.0749 15.3828 84.4987 15.176 84.9893 15.176V13.176ZM81.983 14.9632C81.3575 15.9567 80.9283 17.1452 80.6708 18.5015L82.6357 18.8745C82.8582 17.7028 83.213 16.7633 83.6755 16.0288L81.983 14.9632ZM80.6715 18.498C80.2854 20.4927 79.963 22.338 79.7047 24.0334L81.6819 24.3346C81.9355 22.67 82.2531 20.8513 82.6351 18.878L80.6715 18.498ZM79.701 24.06C79.697 24.092 79.693 24.0856 79.7074 24.0581C79.7146 24.0442 79.7252 24.0275 79.7399 24.0099C79.7546 23.9923 79.7709 23.977 79.7872 23.9646C79.8209 23.939 79.8413 23.9354 79.8285 23.9389C79.8136 23.9429 79.7694 23.952 79.6853 23.952V25.952C80.1152 25.952 80.5953 25.8632 80.9993 25.5554C81.4268 25.2298 81.6281 24.7676 81.6856 24.308L79.701 24.06ZM79.6853 23.952C79.5902 23.952 79.5656 23.9399 79.5853 23.9466C79.5974 23.9508 79.6246 23.9617 79.6595 23.9849C79.6953 24.0088 79.7344 24.0426 79.7701 24.0873L78.2084 25.3367C78.6202 25.8514 79.2373 25.952 79.6853 25.952V23.952ZM79.7702 24.0873C79.7998 24.1244 79.8288 24.1792 79.8423 24.244C79.8551 24.3055 79.8474 24.344 79.8471 24.3455L77.8915 23.9265C77.789 24.4048 77.8692 24.9127 78.2084 25.3367L79.7702 24.0873ZM79.853 24.3155L80.501 20.7635L78.5335 20.4045L77.8855 23.9565L79.853 24.3155ZM80.5022 20.757L80.8142 18.981L78.8444 18.635L78.5324 20.411L80.5022 20.757ZM80.8149 18.977C80.9191 18.369 80.9733 17.7841 80.9733 17.224H78.9733C78.9733 17.6559 78.9314 18.127 78.8437 18.639L80.8149 18.977ZM80.9733 17.224C80.9733 16.2397 80.8049 15.3422 80.3902 14.6002L78.6443 15.5758C78.8377 15.9218 78.9733 16.4483 78.9733 17.224H80.9733ZM80.3902 14.6002C80.1676 14.2018 79.8626 13.8576 79.4596 13.6172C79.0553 13.376 78.607 13.272 78.1493 13.272V15.272C78.2996 15.272 78.3833 15.304 78.435 15.3348C78.488 15.3664 78.5629 15.4302 78.6443 15.5758L80.3902 14.6002ZM78.1493 13.272C77.195 13.272 76.3936 13.7957 75.748 14.5172L77.2385 15.8508C77.681 15.3563 77.9836 15.272 78.1493 15.272V13.272ZM75.747 14.5184C75.0915 15.2533 74.5586 16.3161 74.1083 17.6169L75.9983 18.2711C76.412 17.0759 76.839 16.2987 77.2396 15.8496L75.747 14.5184ZM74.1121 17.6061C73.8792 18.2549 73.6986 18.8451 73.5754 19.3728L75.5231 19.8272C75.624 19.3949 75.7794 18.8811 75.9945 18.2819L74.1121 17.6061ZM73.5772 19.3654C73.4585 19.857 73.35 20.401 73.2509 20.9956L75.2237 21.3244C75.3166 20.767 75.416 20.271 75.5214 19.8346L73.5772 19.3654ZM73.2473 21.0186C73.2352 21.1038 73.1997 21.305 73.1349 21.6449L75.0996 22.0191C75.1629 21.687 75.2074 21.4402 75.2272 21.3014L73.2473 21.0186ZM73.1353 21.6432C72.9725 22.4898 72.8337 23.3137 72.7193 24.1146L74.6992 24.3974C74.8088 23.6303 74.9421 22.8382 75.0993 22.0208L73.1353 21.6432ZM72.7209 24.1039C72.7261 24.0702 72.741 24.0257 72.7692 23.9833C72.7962 23.9429 72.8203 23.9268 72.8186 23.9279L73.928 25.5921C74.3284 25.3251 74.6186 24.9221 74.6977 24.4081L72.7209 24.1039ZM72.7851 23.9513C72.7983 23.9417 72.8059 23.9404 72.7986 23.9425C72.7894 23.9451 72.7595 23.952 72.7013 23.952V25.952C73.1312 25.952 73.5759 25.8492 73.9615 25.5687L72.7851 23.9513ZM72.7013 23.952C72.6399 23.952 72.6294 23.9443 72.6521 23.9516C72.6795 23.9603 72.743 23.9875 72.8084 24.0529L71.3942 25.4671C71.7858 25.8588 72.2957 25.952 72.7013 25.952V23.952ZM72.8906 24.1461C72.9235 24.1884 72.9496 24.242 72.9624 24.2984C72.9745 24.3516 72.9696 24.3841 72.9697 24.3841L70.9929 24.0799C70.9261 24.5141 71.0047 24.9789 71.3119 25.3739L72.8906 24.1461ZM72.9668 24.4013L73.6388 20.4893L71.6677 20.1507L70.9957 24.0627L72.9668 24.4013ZM73.6392 20.4875C73.9193 18.8385 74.13 17.5704 74.2709 16.6851C74.3412 16.243 74.3948 15.8923 74.431 15.6357C74.4616 15.419 74.4933 15.1834 74.4933 15.04H72.4933C72.4933 15.0086 72.49 15.077 72.4506 15.3563C72.4168 15.5957 72.3654 15.933 72.2957 16.3709C72.1565 17.2456 71.9472 18.5055 71.6674 20.1525L73.6392 20.4875ZM74.4933 15.04C74.4933 14.5031 74.3255 13.9943 73.9645 13.5732L72.446 14.8748C72.4691 14.9017 72.4933 14.9369 72.4933 15.04H74.4933ZM74.0997 13.7768C73.9697 13.5169 73.7563 13.3573 73.6853 13.304L72.4853 14.904C72.4936 14.9102 72.4802 14.9011 72.4562 14.8771C72.4435 14.8644 72.4231 14.8428 72.3994 14.8124C72.3764 14.7829 72.343 14.7356 72.3109 14.6712L74.0997 13.7768ZM73.8853 13.504C73.9223 13.5533 73.9562 13.6144 73.98 13.6858C74.0038 13.7571 74.0133 13.8264 74.0133 13.888H72.0133C72.0133 14.1844 72.1075 14.4669 72.2853 14.704L73.8853 13.504ZM74.0133 13.888C74.0133 13.904 74.0115 13.9237 74.0066 13.9453C74.0017 13.967 73.9946 13.9865 73.9868 14.0027C73.9709 14.0358 73.9589 14.0417 73.977 14.0252L72.6256 12.5508C72.2638 12.8825 72.0133 13.3373 72.0133 13.888H74.0133ZM73.9472 14.0514C73.9952 14.0108 74.0165 14.0025 74.01 14.0053C74.006 14.0071 73.9941 14.0119 73.9748 14.0162C73.9552 14.0206 73.9303 14.024 73.9013 14.024V12.024C73.3906 12.024 72.9693 12.259 72.6553 12.5246L73.9472 14.0514ZM73.9013 14.024C73.8827 14.024 73.8591 14.0217 73.8327 14.0151C73.8063 14.0085 73.7826 13.9989 73.7632 13.9885C73.7239 13.9673 73.7188 13.9521 73.739 13.9778L75.3116 12.7422C74.9857 12.3274 74.5071 12.024 73.9013 12.024V14.024ZM73.739 13.9778C73.8447 14.1124 73.9132 14.2452 73.9548 14.3783L75.8638 13.7817C75.7454 13.4028 75.5579 13.0556 75.3116 12.7422L73.739 13.9778ZM73.9478 14.3547C73.9838 14.481 74.0053 14.6278 74.0053 14.8H76.0053C76.0053 14.4602 75.9627 14.127 75.8708 13.8053L73.9478 14.3547ZM74.0053 14.8C74.0053 14.8545 74.0037 14.894 74.0018 14.9208C73.9998 14.9492 73.998 14.9532 74.0007 14.9399L75.9619 15.3321C75.997 15.1565 76.0053 14.9681 76.0053 14.8H74.0053ZM73.9913 14.9946L73.9673 15.1626L75.9472 15.4454L75.9712 15.2774L73.9913 14.9946ZM75.8585 15.7373C76.5456 14.3083 77.3795 13.808 78.3413 13.808V11.808C76.3911 11.808 74.969 12.9717 74.056 14.8707L75.8585 15.7373ZM78.3413 13.808C78.93 13.808 79.2959 13.9828 79.5557 14.2599L81.0148 12.8921C80.3146 12.1452 79.3846 11.808 78.3413 11.808V13.808ZM79.5557 14.2599C79.8771 14.6027 80.1184 15.0834 80.2359 15.7625L82.2066 15.4215C82.0362 14.4366 81.6534 13.5733 81.0148 12.8921L79.5557 14.2599ZM82.1514 15.9593C82.4786 15.1307 82.8879 14.5878 83.3385 14.2506C83.7797 13.9204 84.3284 13.736 85.0373 13.736V11.736C83.9542 11.736 82.9709 12.0276 82.1401 12.6494C81.3187 13.2642 80.7159 14.1493 80.2912 15.2247L82.1514 15.9593ZM95.4503 11.104L94.7432 11.8111L94.7684 11.8363L94.7954 11.8597L95.4503 11.104ZM95.6423 8.968L94.9511 8.24536L94.943 8.25304L94.9352 8.26089L95.6423 8.968ZM97.8503 8.776L97.1432 9.48311L97.1563 9.4962L97.1698 9.50879L97.8503 8.776ZM97.6343 10.888L98.3255 11.6106L98.3255 11.6106L97.6343 10.888ZM92.9783 24.64L92.2712 25.3471L92.2712 25.3471L92.9783 24.64ZM92.8343 24.064L91.8537 23.8679L91.8537 23.8679L92.8343 24.064ZM94.8743 13.864L95.8549 14.0601L95.8571 14.049L95.8591 14.0378L94.8743 13.864ZM95.2343 13.24L95.8343 14.04L95.8343 14.04L95.2343 13.24ZM96.6023 13.24L95.8952 13.9471L95.8952 13.9471L96.6023 13.24ZM96.7463 13.888L97.7268 14.0846L97.73 14.0685L97.7327 14.0524L96.7463 13.888ZM94.7063 24.064L95.6764 24.3065L95.6821 24.2837L95.6868 24.2606L94.7063 24.064ZM94.3223 24.664L94.877 25.4961L94.9001 25.4807L94.9223 25.464L94.3223 24.664ZM96.3623 10.416C96.1944 10.416 96.135 10.3741 96.1052 10.3483L94.7954 11.8597C95.2456 12.2499 95.7941 12.416 96.3623 12.416V10.416ZM96.1574 10.3969C96.1513 10.3908 96.1143 10.3651 96.1143 10.216H94.1143C94.1143 10.8029 94.3012 11.3692 94.7432 11.8111L96.1574 10.3969ZM96.1143 10.216C96.1143 10.012 96.1772 9.84734 96.3494 9.67511L94.9352 8.26089C94.4034 8.79266 94.1143 9.46 94.1143 10.216H96.1143ZM96.3335 9.69064C96.5209 9.51136 96.7074 9.44 96.9383 9.44V7.44C96.1772 7.44 95.4996 7.72063 94.9511 8.24536L96.3335 9.69064ZM96.9383 9.44C97.0337 9.44 97.0857 9.4539 97.1086 9.46234C97.128 9.46949 97.1359 9.47579 97.1432 9.48311L98.5574 8.06889C98.1073 7.61879 97.5275 7.44 96.9383 7.44V9.44ZM97.1698 9.50879C97.1715 9.51031 97.1707 9.50984 97.1694 9.50785C97.168 9.50589 97.1686 9.50606 97.1703 9.51044C97.1737 9.51913 97.1863 9.55685 97.1863 9.64H99.1863C99.1863 9.05527 98.9995 8.47847 98.5307 8.04321L97.1698 9.50879ZM97.1863 9.64C97.1863 9.82903 97.1273 9.98916 96.9431 10.1654L98.3255 11.6106C98.8773 11.0828 99.1863 10.411 99.1863 9.64H97.1863ZM96.9431 10.1654C96.7487 10.3513 96.568 10.416 96.3623 10.416V12.416C97.1166 12.416 97.7839 12.1287 98.3255 11.6106L96.9431 10.1654ZM93.6263 23.856C93.5626 23.856 93.5477 23.8477 93.5645 23.8533C93.5739 23.8565 93.5917 23.8635 93.6143 23.877C93.6372 23.8908 93.6618 23.9093 93.6854 23.9329L92.2712 25.3471C92.6689 25.7448 93.1841 25.856 93.6263 25.856V23.856ZM93.6854 23.9329C93.7377 23.9852 93.7832 24.0604 93.8044 24.1455C93.8238 24.223 93.8132 24.2685 93.8149 24.2601L91.8537 23.8679C91.7553 24.3597 91.8408 24.9167 92.2712 25.3471L93.6854 23.9329ZM93.8149 24.2601L95.8549 14.0601L93.8937 13.6679L91.8537 23.8679L93.8149 24.2601ZM95.8591 14.0378C95.8658 13.9995 95.8727 13.9929 95.8665 14.0037C95.8635 14.0089 95.8588 14.0158 95.8521 14.0233C95.8455 14.0308 95.8391 14.0364 95.8343 14.04L94.6343 12.44C94.2085 12.7593 93.9745 13.2087 93.8895 13.6902L95.8591 14.0378ZM95.8343 14.04C95.8343 14.04 95.8343 14.04 95.8343 14.04C95.8343 14.04 95.8343 14.04 95.8343 14.04C95.8343 14.04 95.8343 14.04 95.8343 14.04C95.8343 14.04 95.8343 14.04 95.8343 14.04C95.8342 14.04 95.8342 14.0401 95.8342 14.0401C95.8341 14.0401 95.8341 14.0401 95.834 14.0402C95.8339 14.0402 95.834 14.0402 95.8345 14.0399C95.8352 14.0396 95.8386 14.0379 95.8456 14.0358C95.8597 14.0316 95.8934 14.024 95.9543 14.024V12.024C95.4944 12.024 95.0319 12.1418 94.6343 12.44L95.8343 14.04ZM95.9543 14.024C96.0179 14.024 96.0329 14.0323 96.0161 14.0267C96.0066 14.0235 95.9889 14.0165 95.9663 14.003C95.9433 13.9892 95.9188 13.9707 95.8952 13.9471L97.3094 12.5329C96.9117 12.1352 96.3964 12.024 95.9543 12.024V14.024ZM95.8952 13.9471C95.8613 13.9132 95.8323 13.874 95.8099 13.8321C95.7879 13.7907 95.7761 13.7539 95.7701 13.7269C95.7589 13.6766 95.7692 13.6679 95.7599 13.7236L97.7327 14.0524C97.8093 13.5929 97.77 12.9935 97.3094 12.5329L95.8952 13.9471ZM95.7658 13.6914L93.7258 23.8674L95.6868 24.2606L97.7268 14.0846L95.7658 13.6914ZM93.7361 23.8215C93.7317 23.8391 93.7275 23.8506 93.7247 23.8574C93.7218 23.8641 93.7201 23.8669 93.72 23.8669C93.7199 23.8671 93.7201 23.8668 93.7206 23.8662C93.721 23.8656 93.7215 23.865 93.7221 23.8644C93.7234 23.863 93.7238 23.8629 93.7223 23.864L94.9223 25.464C95.3166 25.1683 95.5626 24.7617 95.6764 24.3065L93.7361 23.8215ZM93.7676 23.8319C93.7675 23.832 93.7369 23.856 93.6263 23.856V25.856C94.0597 25.856 94.4931 25.752 94.877 25.4961L93.7676 23.8319ZM109.866 8.008L109.181 8.7362L109.192 8.74656L109.203 8.75659L109.866 8.008ZM110.634 10.72L109.654 10.5239L109.649 10.5486L109.645 10.5735L110.634 10.72ZM110.274 11.632L109.567 10.9249L109.567 10.9249L110.274 11.632ZM108.858 11.656L109.639 11.0313L109.639 11.0313L108.858 11.656ZM108.738 11.08L109.716 11.2895L109.721 11.2671L109.725 11.2444L108.738 11.08ZM108.594 9.088L107.857 9.76372L107.872 9.77974L107.887 9.7951L108.594 9.088ZM106.05 9.664L105.208 9.12561L105.208 9.12561L106.05 9.664ZM105.21 12.28L104.223 12.1178L104.223 12.1232L105.21 12.28ZM104.97 13.792L105.946 14.0089L105.953 13.979L105.958 13.9488L104.97 13.792ZM104.802 14.608L103.819 14.4237L103.814 14.4497L103.811 14.4758L104.802 14.608ZM104.706 15.28L103.718 15.1279L103.541 16.28H104.706V15.28ZM107.058 15.448L106.299 16.0988L106.324 16.128L106.351 16.1551L107.058 15.448ZM106.362 16.744L106.334 15.7443L106.321 15.7449L106.362 16.744ZM104.466 16.768V15.768H103.62L103.48 16.602L104.466 16.768ZM103.218 24.184L102.232 24.018L102.232 24.0196L103.218 24.184ZM102.858 24.808L102.304 23.9759L102.287 23.9873L102.27 23.9993L102.858 24.808ZM101.466 24.208L100.481 24.0386L100.479 24.0484L100.478 24.0582L101.466 24.208ZM102.258 19.216L101.271 19.0595L101.27 19.065L102.258 19.216ZM102.642 16.792L103.63 16.9485L103.823 15.7317L102.592 15.7932L102.642 16.792ZM101.202 16.864V17.864H101.227L101.252 17.8628L101.202 16.864ZM100.674 15.64L99.9003 15.0068L99.8822 15.0288L99.8655 15.0518L100.674 15.64ZM101.442 15.352L101.486 16.3511L101.497 16.3506L101.509 16.3498L101.442 15.352ZM102.882 15.304V16.304H103.741L103.871 15.4546L102.882 15.304ZM103.386 12.064L104.373 12.2284L104.374 12.2212L103.386 12.064ZM107.658 8.24C108.396 8.24 108.865 8.43859 109.181 8.7362L110.552 7.2798C109.78 6.55341 108.776 6.24 107.658 6.24V8.24ZM109.203 8.75659C109.519 9.03633 109.706 9.41978 109.706 10.024H111.706C111.706 8.93222 111.333 7.97167 110.529 7.25941L109.203 8.75659ZM109.706 10.024C109.706 10.1764 109.69 10.3426 109.654 10.5239L111.615 10.9161C111.675 10.6174 111.706 10.3196 111.706 10.024H109.706ZM109.645 10.5735C109.621 10.7374 109.59 10.843 109.566 10.9048C109.541 10.9674 109.533 10.959 109.567 10.9249L110.981 12.3391C111.386 11.9341 111.549 11.3685 111.623 10.8665L109.645 10.5735ZM109.567 10.9249C109.58 10.9121 109.593 10.9017 109.606 10.8942C109.618 10.8869 109.625 10.8843 109.625 10.8843C109.623 10.8849 109.589 10.896 109.506 10.896V12.896C110.012 12.896 110.56 12.7608 110.981 12.3391L109.567 10.9249ZM109.506 10.896C109.437 10.896 109.431 10.8863 109.464 10.8983C109.481 10.9049 109.51 10.9178 109.543 10.9409C109.577 10.9644 109.61 10.9947 109.639 11.0313L108.077 12.2807C108.473 12.7751 109.05 12.896 109.506 12.896V10.896ZM109.639 11.0313C109.669 11.0684 109.698 11.1232 109.711 11.188C109.724 11.2495 109.716 11.288 109.716 11.2895L107.76 10.8705C107.658 11.3488 107.738 11.8567 108.077 12.2807L109.639 11.0313ZM109.725 11.2444C109.808 10.7453 109.858 10.306 109.858 9.952H107.858C107.858 10.142 107.829 10.4547 107.752 10.9156L109.725 11.2444ZM109.858 9.952C109.858 9.44143 109.751 8.83102 109.301 8.38089L107.887 9.7951C107.837 9.74539 107.83 9.70824 107.836 9.72822C107.843 9.75228 107.858 9.82064 107.858 9.952H109.858ZM109.331 8.41227C108.867 7.90583 108.196 7.8 107.658 7.8V9.8C107.817 9.8 107.901 9.81772 107.934 9.82778C107.963 9.83658 107.916 9.82814 107.857 9.76372L109.331 8.41227ZM107.658 7.8C106.625 7.8 105.766 8.25175 105.208 9.12561L106.893 10.2024C107.071 9.92425 107.283 9.8 107.658 9.8V7.8ZM105.208 9.12561C104.732 9.87058 104.424 10.8997 104.223 12.1178L106.197 12.4422C106.381 11.3243 106.633 10.6094 106.893 10.2024L105.208 9.12561ZM104.223 12.1232L103.983 13.6352L105.958 13.9488L106.198 12.4368L104.223 12.1232ZM103.994 13.5751C103.928 13.8725 103.87 14.1555 103.819 14.4237L105.785 14.7923C105.831 14.5485 105.885 14.2875 105.946 14.0089L103.994 13.5751ZM103.811 14.4758C103.78 14.7102 103.749 14.9275 103.718 15.1279L105.695 15.4321C105.728 15.2165 105.761 14.9858 105.793 14.7402L103.811 14.4758ZM104.706 16.28H106.602V14.28H104.706V16.28ZM106.602 16.28C106.62 16.28 106.588 16.2829 106.527 16.2603C106.458 16.2353 106.373 16.1848 106.299 16.0988L107.817 14.7972C107.463 14.384 106.978 14.28 106.602 14.28V16.28ZM106.351 16.1551C106.312 16.1156 106.276 16.063 106.252 16.0024C106.229 15.944 106.226 15.8989 106.226 15.88H108.226C108.226 15.4711 108.087 15.0621 107.765 14.7409L106.351 16.1551ZM106.226 15.88C106.226 15.9369 106.219 15.9472 106.225 15.9274C106.234 15.9029 106.256 15.8557 106.303 15.8089C106.349 15.7626 106.393 15.7431 106.408 15.7377C106.42 15.7337 106.4 15.7426 106.334 15.7444L106.39 17.7436C106.827 17.7315 107.329 17.6111 107.717 17.2231C108.11 16.8302 108.226 16.3236 108.226 15.88H106.226ZM106.321 15.7449C105.959 15.7599 105.345 15.768 104.466 15.768V17.768C105.347 17.768 105.997 17.7601 106.404 17.7431L106.321 15.7449ZM103.48 16.602L102.232 24.018L104.204 24.35L105.452 16.934L103.48 16.602ZM102.232 24.0196C102.223 24.0702 102.215 24.0756 102.226 24.0563C102.232 24.0463 102.241 24.0321 102.256 24.0165C102.271 24.0008 102.287 23.9871 102.304 23.9759L103.413 25.6401C103.893 25.3203 104.124 24.8322 104.205 24.3484L102.232 24.0196ZM102.27 23.9993C102.283 23.9897 102.291 23.9884 102.283 23.9905C102.274 23.9931 102.244 24 102.186 24V26C102.616 26 103.061 25.8972 103.446 25.6167L102.27 23.9993ZM102.186 24C102.12 24 102.111 23.9916 102.14 24.0009C102.174 24.0121 102.251 24.0465 102.326 24.1293C102.493 24.3128 102.437 24.4754 102.455 24.3578L100.478 24.0582C100.415 24.4686 100.439 25.0272 100.846 25.4747C101.241 25.9088 101.782 26 102.186 26V24ZM102.452 24.3774C102.629 23.3435 102.895 21.6716 103.247 19.367L101.27 19.065C100.918 21.3684 100.655 23.0245 100.481 24.0386L102.452 24.3774ZM103.246 19.3725L103.63 16.9485L101.655 16.6355L101.271 19.0595L103.246 19.3725ZM102.592 15.7932L101.152 15.8652L101.252 17.8628L102.692 17.7908L102.592 15.7932ZM101.202 15.864C101.062 15.864 101.14 15.8322 101.271 15.9324C101.345 15.9892 101.406 16.0673 101.444 16.1548C101.48 16.2363 101.482 16.2966 101.482 16.312H99.4822C99.4822 16.7319 99.6328 17.1969 100.054 17.5196C100.424 17.8038 100.863 17.864 101.202 17.864V15.864ZM101.482 16.312C101.482 16.2538 101.489 16.2239 101.492 16.2147C101.494 16.2074 101.493 16.215 101.483 16.2282L99.8655 15.0518C99.5851 15.4374 99.4822 15.8821 99.4822 16.312H101.482ZM101.448 16.2732C101.42 16.3082 101.39 16.3333 101.366 16.3499C101.342 16.366 101.326 16.372 101.325 16.3723C101.325 16.3726 101.336 16.3682 101.364 16.3633C101.391 16.3583 101.431 16.3534 101.486 16.3511L101.399 14.3529C100.918 14.3738 100.31 14.5054 99.9003 15.0068L101.448 16.2732ZM101.509 16.3498C101.967 16.3193 102.424 16.304 102.882 16.304V14.304C102.38 14.304 101.878 14.3207 101.376 14.3542L101.509 16.3498ZM103.871 15.4546C104.127 13.7727 104.294 12.7001 104.373 12.2284L102.4 11.8996C102.318 12.3879 102.149 13.4753 101.894 15.1534L103.871 15.4546ZM104.374 12.2212C104.614 10.7109 105.05 9.71489 105.587 9.10898C106.091 8.53954 106.748 8.24 107.658 8.24V6.24C106.232 6.24 105.009 6.74446 104.09 7.78302C103.202 8.78511 102.67 10.2011 102.399 11.9068L104.374 12.2212ZM112.33 30.952L111.549 31.5767L111.556 31.5852L112.33 30.952ZM112.186 30.352L111.21 30.1351L111.201 30.1771L111.195 30.2198L112.186 30.352ZM112.306 30.016L113.164 30.5305L113.174 30.5141L113.183 30.4973L112.306 30.016ZM112.978 28.792L113.855 29.2733L113.856 29.2712L112.978 28.792ZM115.738 23.656L116.629 24.1102L117.013 23.3572L116.335 22.8533L115.738 23.656ZM114.01 21.376L113.124 21.8386L113.129 21.8486L114.01 21.376ZM112.57 17.68L111.604 17.9384L111.608 17.9517L112.57 17.68ZM112.282 13.072L112.955 13.8119L112.973 13.7959L112.989 13.7791L112.282 13.072ZM113.506 12.976L112.638 13.4721L112.682 13.5486L112.738 13.6162L113.506 12.976ZM113.65 13.456L114.649 13.4017L114.648 13.3932L114.648 13.3848L113.65 13.456ZM114.25 17.512L113.282 17.7634L113.283 17.7665L114.25 17.512ZM115.354 20.584L114.46 21.0312L114.463 21.0382L115.354 20.584ZM116.554 22.312L115.896 23.0646L116.903 23.9455L117.463 22.7306L116.554 22.312ZM117.826 19.552L118.735 19.9706L118.735 19.9694L117.826 19.552ZM120.562 13.36L121.489 13.737L121.491 13.7314L120.562 13.36ZM120.898 12.88L121.428 13.728L121.464 13.7055L121.498 13.68L120.898 12.88ZM122.362 13.456H123.362V13.4393L123.362 13.4227L122.362 13.456ZM122.29 13.72L121.396 13.2728L121.381 13.3019L121.369 13.3319L122.29 13.72ZM120.058 18.88L119.147 18.4687L119.147 18.4687L120.058 18.88ZM118.042 23.008L117.156 22.5451L117.155 22.5477L118.042 23.008ZM115.834 27.112L114.96 26.6263L114.954 26.6379L115.834 27.112ZM113.938 30.568L113.068 30.0754L113.064 30.0824L113.938 30.568ZM112.978 30.216C112.934 30.216 112.941 30.2091 112.978 30.2239C112.996 30.2315 113.019 30.2434 113.043 30.2611C113.067 30.2788 113.088 30.2988 113.104 30.3188L111.556 31.5852C111.939 32.0532 112.477 32.216 112.978 32.216V30.216ZM113.111 30.3273C113.139 30.3625 113.161 30.4063 113.171 30.4486C113.18 30.4874 113.175 30.5034 113.178 30.4842L111.195 30.2198C111.134 30.677 111.22 31.1651 111.549 31.5767L113.111 30.3273ZM113.163 30.5689C113.172 30.5282 113.179 30.5053 113.182 30.4963C113.184 30.4922 113.183 30.4933 113.181 30.4987C113.179 30.5039 113.173 30.5151 113.164 30.5305L111.449 29.5015C111.323 29.7112 111.254 29.9397 111.21 30.1351L113.163 30.5689ZM113.183 30.4973L113.855 29.2733L112.102 28.3107L111.43 29.5347L113.183 30.4973ZM113.856 29.2712C115.279 26.666 116.206 24.9411 116.629 24.1102L114.847 23.2018C114.439 24.0029 113.526 25.702 112.101 28.3128L113.856 29.2712ZM116.335 22.8533C115.953 22.5694 115.461 21.965 114.892 20.9034L113.129 21.8486C113.744 22.995 114.404 23.9106 115.142 24.4587L116.335 22.8533ZM114.897 20.9134C114.357 19.8778 113.901 18.7109 113.533 17.4083L111.608 17.9517C112.008 19.3691 112.512 20.6662 113.124 21.8386L114.897 20.9134ZM113.536 17.4216C113.187 16.1135 113.018 14.9212 113.018 13.84H111.018C111.018 15.1268 111.218 16.4945 111.604 17.9384L113.536 17.4216ZM113.018 13.84V13.528H111.018V13.84H113.018ZM113.018 13.528C113.018 13.6668 112.975 13.7641 112.95 13.807C112.928 13.8453 112.918 13.8455 112.955 13.8119L111.61 12.3321C111.356 12.5626 111.018 12.964 111.018 13.528H113.018ZM112.989 13.7791C112.977 13.7919 112.963 13.8023 112.951 13.8098C112.939 13.8171 112.931 13.8197 112.931 13.8197C112.933 13.8191 112.967 13.808 113.05 13.808V11.808C112.545 11.808 111.997 11.9432 111.575 12.3649L112.989 13.7791ZM113.05 13.808C113.104 13.808 113.073 13.8158 112.999 13.7883C112.912 13.7564 112.75 13.6684 112.638 13.4721L114.375 12.4799C114.021 11.8605 113.345 11.808 113.05 11.808V13.808ZM112.738 13.6162C112.668 13.532 112.647 13.4634 112.645 13.4553C112.642 13.4457 112.648 13.4652 112.653 13.5272L114.648 13.3848C114.627 13.0977 114.559 12.6772 114.275 12.3358L112.738 13.6162ZM112.652 13.5103C112.735 15.0386 112.943 16.4577 113.282 17.7634L115.218 17.2606C114.917 16.1023 114.726 14.8174 114.649 13.4017L112.652 13.5103ZM113.283 17.7665C113.615 19.0275 114.005 20.1205 114.46 21.0312L116.249 20.1368C115.872 19.3835 115.526 18.4285 115.217 17.2575L113.283 17.7665ZM114.463 21.0382C114.899 21.892 115.368 22.6028 115.896 23.0646L117.213 21.5594C116.973 21.3492 116.642 20.908 116.245 20.1298L114.463 21.0382ZM117.463 22.7306L118.735 19.9706L116.918 19.1334L115.646 21.8934L117.463 22.7306ZM118.735 19.9694C120 17.2147 120.92 15.1343 121.489 13.737L119.636 12.983C119.085 14.3377 118.18 16.3853 116.918 19.1346L118.735 19.9694ZM121.491 13.7314C121.504 13.6977 121.516 13.6732 121.525 13.6564C121.533 13.6394 121.538 13.6327 121.538 13.6335C121.537 13.6342 121.529 13.6453 121.512 13.6621C121.495 13.6791 121.468 13.7033 121.428 13.728L120.368 12.032C119.972 12.2798 119.758 12.6774 119.634 12.9886L121.491 13.7314ZM121.498 13.68C121.441 13.7231 121.395 13.7369 121.385 13.7396C121.376 13.7419 121.394 13.736 121.45 13.736V11.736C121.097 11.736 120.667 11.8037 120.298 12.08L121.498 13.68ZM121.45 13.736C121.534 13.736 121.573 13.7448 121.582 13.7469C121.588 13.7486 121.552 13.7401 121.503 13.7009C121.449 13.6586 121.407 13.6027 121.383 13.5471C121.36 13.4968 121.362 13.4705 121.363 13.4893L123.362 13.4227C123.347 12.9653 123.179 12.4763 122.742 12.1311C122.342 11.8151 121.858 11.736 121.45 11.736V13.736ZM121.362 13.456C121.362 13.3957 121.371 13.3489 121.38 13.3189C121.388 13.2894 121.395 13.2737 121.396 13.2728L123.185 14.1672C123.28 13.9776 123.362 13.735 123.362 13.456H121.362ZM121.369 13.3319C120.474 15.4562 119.734 17.1676 119.147 18.4687L120.97 19.2913C121.567 17.9684 122.314 16.2398 123.212 14.1081L121.369 13.3319ZM119.147 18.4687C118.564 19.7612 117.9 21.1199 117.156 22.5451L118.929 23.4709C119.689 22.0161 120.369 20.6228 120.97 19.2913L119.147 18.4687ZM117.155 22.5477C116.488 23.8342 115.756 25.1937 114.96 26.6264L116.708 27.5976C117.513 26.1503 118.253 24.7738 118.93 23.4683L117.155 22.5477ZM114.954 26.6379C114.171 28.0913 113.543 29.2363 113.068 30.0754L114.809 31.0606C115.294 30.2037 115.929 29.0447 116.715 27.5861L114.954 26.6379ZM113.064 30.0824C113 30.1982 112.957 30.2264 112.959 30.2252C112.96 30.2242 112.967 30.2205 112.976 30.2177C112.985 30.215 112.987 30.216 112.978 30.216V32.216C113.832 32.216 114.445 31.715 114.812 31.0536L113.064 30.0824Z" fill="#7C3879" mask="url(#path-2-outside-1_2_23)"/>
</g>
<defs>
<filter id="filter0_b_2_23" x="19.7306" y="3.24001" width="106.632" height="31.976" filterUnits="userSpaceOnUse" color-interpolation-filters="sRGB">
<feFlood flood-opacity="0" result="BackgroundImageFix"/>
<feGaussianBlur in="BackgroundImageFix" stdDeviation="2"/>
<feComposite in2="SourceAlpha" operator="in" result="effect1_backgroundBlur_2_23"/>
<feBlend mode="normal" in="SourceGraphic" in2="effect1_backgroundBlur_2_23" result="shape"/>
</filter>
</defs>
</svg>
